
<svg width="109.048114px" height="102px" viewBox="0 0 109.048114 102" version="1.1" xmlns="http://www.w3.org/2000/svg" xmlns:xlink="http://www.w3.org/1999/xlink">
    <g id="Page-1-Copy" stroke="none" stroke-width="1" fill="none" fill-rule="evenodd">
        <path d="M76.0240571,49.9699429 L76.0240571,90 C76.0240571,96.627417 70.6514741,102 64.0240571,102 L12.0240571,102 C1.33319885,102 -4.02080265,89.074297 3.53877568,81.5147186 L33.024,52.0289429 L33.0240571,64 C33.0240571,71.2697836 39.0009021,76.0718046 45.2030563,76.0236989 L45.4768087,76.0184223 C48.3067153,75.9312249 51.1658691,74.8287507 53.5093384,72.4852814 L76.0240571,49.9699429 Z" id="Path" fill="#548687"></path>
        <path d="M97.0240571,0 C107.714915,0 113.068917,12.925703 105.509338,20.4852814 L76.0240571,49.9699429 L76.0240571,38 C76.0240571,27.3091418 63.098354,21.9551403 55.5387757,29.5147186 L33.024,52.0279429 L33.024,12 C33.024,5.372583 38.3966401,0 45.0240571,0 L97.0240571,0 Z" id="Path" fill="#B0413E"></path>
        <path d="M76.0240571,38 L76.0240571,49.9699429 L53.5093384,72.4852814 C45.9497601,80.0448597 33.0240571,74.6908582 33.0240571,64 L33.0240571,52.0279429 L55.5387757,29.5147186 C63.098354,21.9551403 76.0240571,27.3091418 76.0240571,38 Z" id="Path-Copy" fill="#B0413E"></path>
        <path d="M76.0240571,38 L76.0240571,49.9699429 L53.5093384,72.4852814 C45.9497601,80.0448597 33.0240571,74.6908582 33.0240571,64 L33.0240571,52.0279429 L55.5387757,29.5147186 C63.098354,21.9551403 76.0240571,27.3091418 76.0240571,38 Z" id="Path" fill="#548687" style="mix-blend-mode: multiply;"></path>
    </g>
</svg>