
<svg width="128.494118px" height="111.254545px" viewBox="0 0 128.494118 111.254545" version="1.1" xmlns="http://www.w3.org/2000/svg" xmlns:xlink="http://www.w3.org/1999/xlink">
    <g id="Page-1" stroke="none" stroke-width="1" fill="none" fill-rule="evenodd">
        <polygon id="Polygon" fill="#1D315C" points="63.9941176 0 122.484093 42.4954548 100.142911 111.254545 27.8453246 111.254545 5.50414189 42.4954548"></polygon>
        <g id="sla" transform="translate(0, 23)" fill="#FCA311" fill-rule="nonzero">
            <path d="M22.9941176,66.2 C29.927451,66.2 33.3941176,64.3 33.3941176,60.5 C33.3941176,58.3666667 32.1941176,56.6166667 29.7941176,55.25 C27.3941176,53.8833333 24.4941176,52.7666667 21.0941176,51.9 C17.6941176,51.0333333 14.3441176,50.0333333 11.0441176,48.9 C7.74411765,47.7666667 5.01078431,45.9666667 2.84411765,43.5 C0.67745098,41.0333333 -0.205882353,37.8 0.194117647,33.8 C0.594117647,29.8 2.64411765,26.5 6.34411765,23.9 C10.0441176,21.3 14.6107843,20 20.0441176,20 C25.477451,20 29.8607843,20.8666667 33.1941176,22.6 C36.527451,24.3333333 38.3941176,26.6666667 38.7941176,29.6 C39.0607843,31.4 38.777451,33.0666667 37.9441176,34.6 C37.1107843,36.1333333 35.7441176,36.9333333 33.8441176,37 C31.9441176,37.0666667 30.377451,36.5666667 29.1441176,35.5 C27.9107843,34.4333333 27.327451,33.2 27.3941176,31.8 C27.4607843,30.4 27.9941176,29.15 28.9941176,28.05 C29.9941176,26.95 30.4941176,26.0666667 30.4941176,25.4 C30.4941176,24.2666667 29.4107843,23.4166667 27.2441176,22.85 C25.077451,22.2833333 22.577451,22 19.7441176,22 C16.9107843,22 14.5941176,22.6333333 12.7941176,23.9 C10.9941176,25.1666667 10.0941176,26.7333333 10.0941176,28.6 C10.0941176,30.4666667 11.2107843,32.0666667 13.4441176,33.4 C15.677451,34.7333333 18.3941176,35.8166667 21.5941176,36.65 C24.7941176,37.4833333 27.977451,38.4166667 31.1441176,39.45 C34.3107843,40.4833333 37.0107843,42.1333333 39.2441176,44.4 C41.477451,46.6666667 42.5941176,49.5333333 42.5941176,53 C42.5941176,57.6 40.9607843,61.2833333 37.6941176,64.05 C34.427451,66.8166667 29.4941176,68.2 22.8941176,68.2 C16.2941176,68.2 10.9441176,67.2 6.84411765,65.2 C2.74411765,63.2 0.494117647,60.6333333 0.0941176471,57.5 C-0.17254902,55.7 0.12745098,54.0333333 0.994117647,52.5 C1.86078431,50.9666667 3.22745098,50.1666667 5.09411765,50.1 C6.96078431,50.0333333 8.51078431,50.5333333 9.74411765,51.6 C10.977451,52.6666667 11.5607843,53.9 11.4941176,55.3 C11.427451,56.7 10.8941176,57.95 9.89411765,59.05 C8.89411765,60.15 8.39411765,61.0333333 8.39411765,61.7 C8.39411765,63.0333333 9.94411765,64.1166667 13.0441176,64.95 C16.1441176,65.7833333 19.4607843,66.2 22.9941176,66.2 Z" id="Path"></path>
            <polygon id="Path" points="67.9941176 65 72.9941176 65 72.9941176 67 47.9941176 67 47.9941176 65 52.9941176 65 52.9941176 2 47.9941176 2 47.9941176 0 67.9941176 0"></polygon>
            <path d="M128.494118,65 C127.827451,65.6666667 126.560784,66.25 124.694118,66.75 C122.827451,67.25 120.660784,67.5 118.194118,67.5 C112.727451,67.5 109.294118,65.8666667 107.894118,62.6 C104.560784,66.0666667 99.4607843,67.8 92.5941176,67.8 C88.927451,67.8 85.9107843,66.95 83.5441176,65.25 C81.177451,63.55 79.9941176,61.0333333 79.9941176,57.7 C79.9941176,53.2333333 81.727451,49.7833333 85.1941176,47.35 C88.6607843,44.9166667 94.727451,43.2 103.394118,42.2 L107.394118,41.7 L107.394118,36.8 C107.394118,31 106.960784,27.1 106.094118,25.1 C105.227451,23.1 103.510784,22.1 100.944118,22.1 C98.377451,22.1 96.727451,22.45 95.9941176,23.15 C95.2607843,23.85 94.9941176,24.65 95.1941176,25.55 C95.3941176,26.45 95.727451,27.6333333 96.1941176,29.1 C96.6607843,30.5666667 96.8941176,31.7333333 96.8941176,32.6 C96.8941176,34.6666667 96.177451,36.4166667 94.7441176,37.85 C93.3107843,39.2833333 91.577451,40 89.5441176,40 C87.5107843,40 85.7607843,39.2833333 84.2941176,37.85 C82.827451,36.4166667 82.0941176,34.6666667 82.0941176,32.6 C82.0941176,29.2 83.8441176,26.2833333 87.3441176,23.85 C90.8441176,21.4166667 96.077451,20.2 103.044118,20.2 C110.010784,20.2 114.977451,21.5666667 117.944118,24.3 C120.910784,27.0333333 122.394118,31.8666667 122.394118,38.8 L122.394118,56.8 C122.394118,60.3333333 122.827451,62.55 123.694118,63.45 C124.560784,64.35 126.160784,64.5333333 128.494118,64 L128.494118,65 Z M93.8941176,55.7 C94.227451,58.2333333 95.1607843,60.1833333 96.6941176,61.55 C98.227451,62.9166667 100.010784,63.6 102.044118,63.6 C104.077451,63.6 105.860784,62.6 107.394118,60.6 L107.394118,43.6 L103.794118,44.1 C100.727451,44.5 98.2441176,45.6666667 96.3441176,47.6 C94.4441176,49.5333333 93.627451,52.2333333 93.8941176,55.7 Z" id="Shape"></path>
        </g>
    </g>
</svg>