
<svg width="153px" height="153px" viewBox="0 0 153 153" version="1.1" xmlns="http://www.w3.org/2000/svg" xmlns:xlink="http://www.w3.org/1999/xlink">
    <g id="Page-1-Copy" stroke="none" stroke-width="1" fill="none" fill-rule="evenodd">
        <circle id="Oval" fill="#000000" cx="76.5" cy="76.5" r="76.5"></circle>
        <path d="M98.5,76.9699429 L98.5,117 C98.5,123.627417 93.127417,129 86.5,129 L34.5,129 C23.8091418,129 18.4551403,116.074297 26.0147186,108.514719 L55.4999429,79.0289429 L55.5,91 C55.5,98.2697836 61.4768451,103.071805 67.6789993,103.023699 L67.9527516,103.018422 C70.7826582,102.931225 73.6418121,101.828751 75.9852814,99.4852814 L98.5,76.9699429 Z" id="Path" fill="#548687"></path>
        <path d="M119.5,27 C130.190858,27 135.54486,39.925703 127.985281,47.4852814 L98.5,76.9699429 L98.5,65 C98.5,54.3091418 85.574297,48.9551403 78.0147186,56.5147186 L55.4999429,79.0279429 L55.4999429,39 C55.4999429,32.372583 60.872583,27 67.5,27 L119.5,27 Z" id="Path" fill="#B0413E"></path>
        <path d="M98.5,65 L98.5,76.9699429 L75.9852814,99.4852814 C68.425703,107.04486 55.5,101.690858 55.5,91 L55.5,79.0279429 L78.0147186,56.5147186 C85.574297,48.9551403 98.5,54.3091418 98.5,65 Z" id="Path-Copy" fill="#B0413E"></path>
        <path d="M98.5,65 L98.5,76.9699429 L75.9852814,99.4852814 C68.425703,107.04486 55.5,101.690858 55.5,91 L55.5,79.0279429 L78.0147186,56.5147186 C85.574297,48.9551403 98.5,54.3091418 98.5,65 Z" id="Path" fill="#548687" style="mix-blend-mode: multiply;"></path>
    </g>
</svg>