
<svg width="453.747224px" height="81.2px" viewBox="0 0 453.747224 81.2" version="1.1" xmlns="http://www.w3.org/2000/svg" xmlns:xlink="http://www.w3.org/1999/xlink">
    <g id="Page-2" stroke="none" stroke-width="1" fill="none" fill-rule="evenodd">
        <polygon id="Polygon" fill="#1D315C" points="29.0072237 0 58.0144475 21.0749817 46.9346739 55.1750183 11.0797736 55.1750183 1.42108547e-14 21.0749817"></polygon>
        <polygon id="Polygon" fill-opacity="0.8" fill="#1D315C" points="87.0072237 0 116.014447 21.0749817 104.934674 55.1750183 69.0797736 55.1750183 58 21.0749817"></polygon>
        <polygon id="Polygon" fill-opacity="0.6" fill="#1D315C" points="145.007224 0 174.014447 21.0749817 162.934674 55.1750183 127.079774 55.1750183 116 21.0749817"></polygon>
        <polygon id="Polygon" fill-opacity="0.4" fill="#1D315C" points="203.007224 0 232.014447 21.0749817 220.934674 55.1750183 185.079774 55.1750183 174 21.0749817"></polygon>
        <polygon id="Polygon" fill-opacity="0.2" fill="#1D315C" points="261.007224 0 290.014447 21.0749817 278.934674 55.1750183 243.079774 55.1750183 232 21.0749817"></polygon>
        <g id="s-i-l-v-i-a-l-a" transform="translate(79.0131, 11.9)" fill="#FCA311" fill-rule="nonzero">
            <path d="M22.9941176,67.3 C29.927451,67.3 33.3941176,65.4 33.3941176,61.6 C33.3941176,59.4666667 32.1941176,57.7166667 29.7941176,56.35 C27.3941176,54.9833333 24.4941176,53.8666667 21.0941176,53 C17.6941176,52.1333333 14.3441176,51.1333333 11.0441176,50 C7.74411765,48.8666667 5.01078431,47.0666667 2.84411765,44.6 C0.67745098,42.1333333 -0.205882353,38.9 0.194117647,34.9 C0.594117647,30.9 2.64411765,27.6 6.34411765,25 C10.0441176,22.4 14.6107843,21.1 20.0441176,21.1 C25.477451,21.1 29.8607843,21.9666667 33.1941176,23.7 C36.527451,25.4333333 38.3941176,27.7666667 38.7941176,30.7 C39.0607843,32.5 38.777451,34.1666667 37.9441176,35.7 C37.1107843,37.2333333 35.7441176,38.0333333 33.8441176,38.1 C31.9441176,38.1666667 30.377451,37.6666667 29.1441176,36.6 C27.9107843,35.5333333 27.327451,34.3 27.3941176,32.9 C27.4607843,31.5 27.9941176,30.25 28.9941176,29.15 C29.9941176,28.05 30.4941176,27.1666667 30.4941176,26.5 C30.4941176,25.3666667 29.4107843,24.5166667 27.2441176,23.95 C25.077451,23.3833333 22.577451,23.1 19.7441176,23.1 C16.9107843,23.1 14.5941176,23.7333333 12.7941176,25 C10.9941176,26.2666667 10.0941176,27.8333333 10.0941176,29.7 C10.0941176,31.5666667 11.2107843,33.1666667 13.4441176,34.5 C15.677451,35.8333333 18.3941176,36.9166667 21.5941176,37.75 C24.7941176,38.5833333 27.977451,39.5166667 31.1441176,40.55 C34.3107843,41.5833333 37.0107843,43.2333333 39.2441176,45.5 C41.477451,47.7666667 42.5941176,50.6333333 42.5941176,54.1 C42.5941176,58.7 40.9607843,62.3833333 37.6941176,65.15 C34.427451,67.9166667 29.4941176,69.3 22.8941176,69.3 C16.2941176,69.3 10.9441176,68.3 6.84411765,66.3 C2.74411765,64.3 0.494117647,61.7333333 0.0941176471,58.6 C-0.17254902,56.8 0.12745098,55.1333333 0.994117647,53.6 C1.86078431,52.0666667 3.22745098,51.2666667 5.09411765,51.2 C6.96078431,51.1333333 8.51078431,51.6333333 9.74411765,52.7 C10.977451,53.7666667 11.5607843,55 11.4941176,56.4 C11.427451,57.8 10.8941176,59.05 9.89411765,60.15 C8.89411765,61.25 8.39411765,62.1333333 8.39411765,62.8 C8.39411765,64.1333333 9.94411765,65.2166667 13.0441176,66.05 C16.1441176,66.8833333 19.4607843,67.3 22.9941176,67.3 Z" id="Path"></path>
            <path d="M71.4341176,66.1 L76.4341176,66.1 L76.4341176,68.1 L51.4341176,68.1 L51.4341176,66.1 L56.4341176,66.1 L56.4341176,24.1 L52.4341176,24.1 L52.4341176,22.1 L71.4341176,22.1 L71.4341176,66.1 Z M72.3341176,8.9 C72.3341176,11.3 71.4841176,13.35 69.7841176,15.05 C68.0841176,16.75 66.017451,17.6 63.5841176,17.6 C61.1507843,17.6 59.067451,16.75 57.3341176,15.05 C55.6007843,13.35 54.7341176,11.2833333 54.7341176,8.85 C54.7341176,6.41666667 55.6007843,4.33333333 57.3341176,2.6 C59.067451,0.866666667 61.1507843,1.42108547e-14 63.5841176,1.42108547e-14 C66.017451,1.42108547e-14 68.0841176,0.866666667 69.7841176,2.6 C71.4841176,4.33333333 72.3341176,6.43333333 72.3341176,8.9 Z" id="Shape"></path>
            <polygon id="Path" points="106.874118 66.1 111.874118 66.1 111.874118 68.1 86.8741176 68.1 86.8741176 66.1 91.8741176 66.1 91.8741176 3.1 86.8741176 3.1 86.8741176 1.1 106.874118 1.1"></polygon>
            <polygon id="Path" points="170.914118 22.1 170.914118 24.1 166.014118 24.1 147.314118 68.1 145.514118 68.1 123.314118 24.1 119.314118 24.1 119.314118 22.1 145.314118 22.1 145.314118 24.1 140.314118 24.1 152.714118 50.1 163.814118 24.1 155.914118 24.1 155.914118 22.1"></polygon>
            <path d="M199.354118,66.1 L204.354118,66.1 L204.354118,68.1 L179.354118,68.1 L179.354118,66.1 L184.354118,66.1 L184.354118,24.1 L180.354118,24.1 L180.354118,22.1 L199.354118,22.1 L199.354118,66.1 Z M200.254118,8.9 C200.254118,11.3 199.404118,13.35 197.704118,15.05 C196.004118,16.75 193.937451,17.6 191.504118,17.6 C189.070784,17.6 186.987451,16.75 185.254118,15.05 C183.520784,13.35 182.654118,11.2833333 182.654118,8.85 C182.654118,6.41666667 183.520784,4.33333333 185.254118,2.6 C186.987451,0.866666667 189.070784,1.42108547e-14 191.504118,1.42108547e-14 C193.937451,1.42108547e-14 196.004118,0.866666667 197.704118,2.6 C199.404118,4.33333333 200.254118,6.43333333 200.254118,8.9 Z" id="Shape"></path>
            <path d="M263.294118,66.1 C262.627451,66.7666667 261.360784,67.35 259.494118,67.85 C257.627451,68.35 255.460784,68.6 252.994118,68.6 C247.527451,68.6 244.094118,66.9666667 242.694118,63.7 C239.360784,67.1666667 234.260784,68.9 227.394118,68.9 C223.727451,68.9 220.710784,68.05 218.344118,66.35 C215.977451,64.65 214.794118,62.1333333 214.794118,58.8 C214.794118,54.3333333 216.527451,50.8833333 219.994118,48.45 C223.460784,46.0166667 229.527451,44.3 238.194118,43.3 L242.194118,42.8 L242.194118,37.9 C242.194118,32.1 241.760784,28.2 240.894118,26.2 C240.027451,24.2 238.310784,23.2 235.744118,23.2 C233.177451,23.2 231.527451,23.55 230.794118,24.25 C230.060784,24.95 229.794118,25.75 229.994118,26.65 C230.194118,27.55 230.527451,28.7333333 230.994118,30.2 C231.460784,31.6666667 231.694118,32.8333333 231.694118,33.7 C231.694118,35.7666667 230.977451,37.5166667 229.544118,38.95 C228.110784,40.3833333 226.377451,41.1 224.344118,41.1 C222.310784,41.1 220.560784,40.3833333 219.094118,38.95 C217.627451,37.5166667 216.894118,35.7666667 216.894118,33.7 C216.894118,30.3 218.644118,27.3833333 222.144118,24.95 C225.644118,22.5166667 230.877451,21.3 237.844118,21.3 C244.810784,21.3 249.777451,22.6666667 252.744118,25.4 C255.710784,28.1333333 257.194118,32.9666667 257.194118,39.9 L257.194118,57.9 C257.194118,61.4333333 257.627451,63.65 258.494118,64.55 C259.360784,65.45 260.960784,65.6333333 263.294118,65.1 L263.294118,66.1 Z M228.694118,56.8 C229.027451,59.3333333 229.960784,61.2833333 231.494118,62.65 C233.027451,64.0166667 234.810784,64.7 236.844118,64.7 C238.877451,64.7 240.660784,63.7 242.194118,61.7 L242.194118,44.7 L238.594118,45.2 C235.527451,45.6 233.044118,46.7666667 231.144118,48.7 C229.244118,50.6333333 228.427451,53.3333333 228.694118,56.8 Z" id="Shape"></path>
            <polygon id="Path" points="310.794118 66.1 315.794118 66.1 315.794118 68.1 290.794118 68.1 290.794118 66.1 295.794118 66.1 295.794118 3.1 290.794118 3.1 290.794118 1.1 310.794118 1.1"></polygon>
            <path d="M374.734118,66.1 C374.067451,66.7666667 372.800784,67.35 370.934118,67.85 C369.067451,68.35 366.900784,68.6 364.434118,68.6 C358.967451,68.6 355.534118,66.9666667 354.134118,63.7 C350.800784,67.1666667 345.700784,68.9 338.834118,68.9 C335.167451,68.9 332.150784,68.05 329.784118,66.35 C327.417451,64.65 326.234118,62.1333333 326.234118,58.8 C326.234118,54.3333333 327.967451,50.8833333 331.434118,48.45 C334.900784,46.0166667 340.967451,44.3 349.634118,43.3 L353.634118,42.8 L353.634118,37.9 C353.634118,32.1 353.200784,28.2 352.334118,26.2 C351.467451,24.2 349.750784,23.2 347.184118,23.2 C344.617451,23.2 342.967451,23.55 342.234118,24.25 C341.500784,24.95 341.234118,25.75 341.434118,26.65 C341.634118,27.55 341.967451,28.7333333 342.434118,30.2 C342.900784,31.6666667 343.134118,32.8333333 343.134118,33.7 C343.134118,35.7666667 342.417451,37.5166667 340.984118,38.95 C339.550784,40.3833333 337.817451,41.1 335.784118,41.1 C333.750784,41.1 332.000784,40.3833333 330.534118,38.95 C329.067451,37.5166667 328.334118,35.7666667 328.334118,33.7 C328.334118,30.3 330.084118,27.3833333 333.584118,24.95 C337.084118,22.5166667 342.317451,21.3 349.284118,21.3 C356.250784,21.3 361.217451,22.6666667 364.184118,25.4 C367.150784,28.1333333 368.634118,32.9666667 368.634118,39.9 L368.634118,57.9 C368.634118,61.4333333 369.067451,63.65 369.934118,64.55 C370.800784,65.45 372.400784,65.6333333 374.734118,65.1 L374.734118,66.1 Z M340.134118,56.8 C340.467451,59.3333333 341.400784,61.2833333 342.934118,62.65 C344.467451,64.0166667 346.250784,64.7 348.284118,64.7 C350.317451,64.7 352.100784,63.7 353.634118,61.7 L353.634118,44.7 L350.034118,45.2 C346.967451,45.6 344.484118,46.7666667 342.584118,48.7 C340.684118,50.6333333 339.867451,53.3333333 340.134118,56.8 Z" id="Shape"></path>
        </g>
    </g>
</svg>