
<svg width="456.507224px" height="142px" viewBox="0 0 456.507224 142" version="1.1" xmlns="http://www.w3.org/2000/svg" xmlns:xlink="http://www.w3.org/1999/xlink">
    <g id="Page-2" stroke="none" stroke-width="1" fill="none" fill-rule="evenodd">
        <polygon id="Polygon" fill="#1D315C" points="29.0072237 20 58.0144475 41.0749817 46.9346739 75.1750183 11.0797736 75.1750183 1.42108547e-14 41.0749817"></polygon>
        <polygon id="Polygon" fill-opacity="0.8" fill="#1D315C" points="87.0072237 20 116.014447 41.0749817 104.934674 75.1750183 69.0797736 75.1750183 58 41.0749817"></polygon>
        <polygon id="Polygon" fill-opacity="0.6" fill="#1D315C" points="145.007224 20 174.014447 41.0749817 162.934674 75.1750183 127.079774 75.1750183 116 41.0749817"></polygon>
        <polygon id="Polygon" fill-opacity="0.4" fill="#1D315C" points="203.007224 20 232.014447 41.0749817 220.934674 75.1750183 185.079774 75.1750183 174 41.0749817"></polygon>
        <polygon id="Polygon" fill-opacity="0.2" fill="#1D315C" points="261.007224 20 290.014447 41.0749817 278.934674 75.1750183 243.079774 75.1750183 232 41.0749817"></polygon>
        <text id="s-i-l-v-i-a-l-a" font-family="RozhaOne-Regular, Rozha One" font-size="100" font-weight="normal" fill="#FCA311">
            <tspan x="75.5072237" y="100">s</tspan>
            <tspan x="123.007224" y="100" font-size="16"> </tspan>
            <tspan x="126.447224" y="100">i</tspan>
            <tspan x="158.447224" y="100" font-size="16"> </tspan>
            <tspan x="161.887224" y="100">l</tspan>
            <tspan x="193.887224" y="100" font-size="16"> </tspan>
            <tspan x="197.327224" y="100">v</tspan>
            <tspan x="250.927224" y="100" font-size="16"> </tspan>
            <tspan x="254.367224" y="100">i</tspan>
            <tspan x="286.367224" y="100" font-size="16"> </tspan>
            <tspan x="289.807224" y="100">a l</tspan>
            <tspan x="397.807224" y="100" font-size="16"> </tspan>
            <tspan x="401.247224" y="100">a</tspan>
        </text>
    </g>
</svg>